<svg version="1.1" id="Layer_1" xmlns="http://www.w3.org/2000/svg" xmlns:xlink="http://www.w3.org/1999/xlink" x="0px" y="0px"
	 width="100%" viewBox="0 0 300 300" enable-background="new 0 0 300 300" xml:space="preserve">
<path fill="#000000" opacity="1.000000" stroke="none" 
	d="
M131.000000,0.999999 
	C143.687561,1.000000 156.375122,1.000000 169.760101,1.334578 
	C176.108322,2.679759 181.851517,3.331942 187.394531,4.760688 
	C217.378983,12.489336 242.925537,27.438320 263.539612,50.891148 
	C279.874512,69.475533 291.195862,90.496758 297.184967,114.430267 
	C298.639069,120.241196 299.737823,126.141045 301.000000,132.000000 
	C301.000000,144.354233 301.000000,156.708450 300.665405,169.760086 
	C299.395599,175.961197 298.855011,181.567108 297.460846,186.951996 
	C288.609650,221.139435 270.676208,249.492188 242.447495,270.980469 
	C226.955002,282.773682 209.816666,291.452179 190.953491,296.479645 
	C184.368500,298.234680 177.654892,299.507172 171.000000,301.000000 
	C157.979111,301.000000 144.958206,301.000000 131.239990,300.665466 
	C113.798592,298.564758 97.949646,293.518433 83.088371,285.896118 
	C62.723373,275.450958 45.155224,261.379333 31.360630,242.877716 
	C20.425583,228.211334 11.620204,212.468521 6.857561,194.691162 
	C4.752831,186.834885 2.943457,178.899475 0.999999,171.000000 
	C1.000000,157.979111 1.000000,144.958206 1.334520,131.239990 
	C3.829548,120.939346 5.026003,110.989471 8.330253,101.797272 
	C18.483194,73.552475 34.996815,49.626076 59.153492,31.343576 
	C73.747246,20.298578 89.623024,11.749508 107.321075,6.863736 
	C115.156494,4.700672 123.103600,2.942158 131.000000,0.999999 
M192.768173,141.756302 
	C192.814026,142.510254 192.859879,143.264206 192.784286,144.811340 
	C192.831329,145.878098 192.878372,146.944839 192.825089,148.656525 
	C192.831268,149.091187 192.837448,149.525833 192.438553,150.523087 
	C192.603897,152.356476 192.769241,154.189865 192.884048,156.851151 
	C192.916885,158.235550 192.949738,159.619934 192.942780,161.756012 
	C192.952011,162.509140 192.961243,163.262283 192.947296,164.816940 
	C192.955017,165.887619 192.962753,166.958313 192.693161,168.676285 
	C192.640778,174.943573 193.455612,175.896454 199.040802,175.987793 
	C201.372177,176.025909 203.705338,176.029358 206.036575,175.987228 
	C211.881210,175.881622 212.944000,174.773529 212.940063,168.089066 
	C212.861633,166.677826 212.783188,165.266602 212.830048,163.019638 
	C212.736557,161.312744 212.643082,159.605865 212.726547,157.103745 
	C212.557068,154.759842 212.387589,152.415955 212.284653,149.315582 
	C212.269501,148.560989 212.254349,147.806381 212.345459,146.305435 
	C212.311798,145.554504 212.278122,144.803589 212.350082,143.301926 
	C212.322479,142.548660 212.294876,141.795410 212.508041,140.453964 
	C212.482437,139.630905 212.456848,138.807831 212.654907,137.418854 
	C212.547729,136.630325 212.440536,135.841782 212.498367,134.263397 
	C212.443314,133.197556 212.388275,132.131714 212.573578,130.406860 
	C212.509705,129.262726 212.445831,128.118591 212.628265,126.234528 
	C212.537094,125.473114 212.445923,124.711708 212.618973,123.236763 
	C212.548569,120.410233 212.478165,117.583694 212.609406,113.917465 
	C212.539581,111.606804 212.469757,109.296143 212.646255,106.204300 
	C212.556641,105.130447 212.467041,104.056602 212.638199,102.201935 
	C212.550842,101.121704 212.463470,100.041473 212.646286,98.115829 
	C212.646286,95.872177 212.646286,93.628532 212.646286,91.335190 
	C205.683395,91.335190 199.229446,91.335190 192.450867,91.335190 
	C192.610641,94.132561 192.749878,96.570160 192.615646,99.779167 
	C192.706482,100.856728 192.797318,101.934296 192.616043,103.782265 
	C192.701614,104.859009 192.787170,105.935745 192.611084,107.785255 
	C192.699463,108.860542 192.787827,109.935829 192.623978,111.789436 
	C192.697113,112.871422 192.770264,113.953400 192.587952,115.903107 
	C192.693436,118.604912 192.798935,121.306709 192.681763,124.742050 
	C192.751144,125.499901 192.820526,126.257744 192.677170,127.797653 
	C192.746704,128.870239 192.816223,129.942825 192.699722,131.801849 
	C192.762451,132.873322 192.825180,133.944794 192.721268,135.754868 
	C192.777054,136.506989 192.832855,137.259125 192.741013,138.753815 
	C192.794296,139.506195 192.847580,140.258575 192.768173,141.756302 
M208.066071,209.467056 
	C207.938828,209.137787 207.700668,208.946899 207.127991,208.249634 
	C205.739548,206.542053 204.351105,204.834457 202.768600,202.528915 
	C202.219849,202.256088 201.671082,201.983261 201.167404,201.064255 
	C200.438354,200.059982 199.709290,199.055725 198.821564,197.435455 
	C197.865295,196.333954 196.909027,195.232452 195.774200,193.493378 
	C194.511459,192.006805 193.248734,190.520233 191.796494,188.379303 
	C167.400421,156.948822 143.013458,125.511253 118.574135,94.114441 
	C117.621422,92.890503 116.195587,91.220413 114.941956,91.177811 
	C107.032341,90.908936 99.109077,91.041527 91.339607,91.041527 
	C91.339607,131.427383 91.339607,171.126923 91.339607,210.700409 
	C98.121643,210.700409 104.534996,210.700409 111.384018,210.700409 
	C111.384018,179.702530 111.384018,149.027100 111.384018,117.088165 
	C117.842316,125.430748 123.503159,132.780228 129.203171,140.099197 
	C145.047195,160.443314 160.907486,180.774750 176.913498,201.746964 
	C178.155045,203.215714 179.396606,204.684464 180.822617,206.769852 
	C181.793121,207.884033 182.763611,208.998199 183.899719,210.732513 
	C184.844254,211.859100 185.788788,212.985703 186.993317,214.741028 
	C187.896225,215.745575 188.799149,216.750107 189.722900,217.912094 
	C189.722900,217.912094 189.842941,218.016068 190.035278,218.659348 
	C191.328033,220.179245 192.620789,221.699142 194.052658,223.850204 
	C195.314514,225.332184 196.576370,226.814163 197.988724,228.906143 
	C198.956573,230.014252 199.924408,231.122345 201.024857,232.812454 
	C201.681946,233.542114 202.339050,234.271759 203.183823,235.615479 
	C204.143631,236.730728 205.103439,237.845963 206.208755,239.508774 
	C206.720642,240.048294 207.232529,240.587814 207.931213,241.745773 
	C208.913788,242.858490 209.896362,243.971207 211.122040,245.646118 
	C211.756271,246.424255 212.390518,247.202408 213.207184,248.521851 
	C213.743851,249.049774 214.280533,249.577698 214.977692,250.710037 
	C215.630463,251.487030 216.283234,252.264008 217.230301,253.664688 
	C218.790283,254.813660 220.350266,255.962646 221.939072,257.820404 
	C222.290436,258.884491 222.641800,259.948547 223.290726,261.604706 
	C224.769623,263.747253 226.151794,264.391174 228.414963,262.206573 
	C231.004898,259.706573 234.188156,257.829620 236.859848,255.402588 
	C238.315659,254.080109 241.418655,253.004669 238.925842,249.341339 
	C237.957184,248.223495 236.988541,247.105637 235.743591,245.396057 
	C234.532776,243.894043 233.321976,242.392044 231.974258,240.283432 
	C231.319977,239.515472 230.665695,238.747513 229.785843,237.445679 
	C229.244568,236.909576 228.703308,236.373474 227.840744,235.319382 
	C227.238007,234.532486 226.635269,233.745605 225.798462,232.367645 
	C224.854416,231.298294 223.910355,230.228928 222.520416,228.740250 
	C222.076309,228.075867 221.632202,227.411484 221.026276,226.191116 
	C220.235519,225.416641 219.444778,224.642151 218.542877,223.227280 
	C217.892700,222.404434 217.242523,221.581589 216.300995,220.142929 
	C215.192429,218.786255 214.083862,217.429596 212.847473,215.579437 
	C212.587494,215.377625 212.327515,215.175812 211.889633,214.352875 
	C210.933594,213.214966 209.977539,212.077072 208.923370,210.467346 
	C208.775955,210.141907 208.524277,209.963745 208.066071,209.467056 
z"/>
<path fill="#47704C" opacity="1.000000" stroke="none" 
	d="
M301.000000,131.531342 
	C299.737823,126.141045 298.639069,120.241196 297.184967,114.430267 
	C291.195862,90.496758 279.874512,69.475533 263.539612,50.891148 
	C242.925537,27.438320 217.378983,12.489336 187.394531,4.760688 
	C181.851517,3.331942 176.108322,2.679759 170.228760,1.334578 
	C213.593643,1.000000 257.187286,1.000000 301.000000,1.000000 
	C301.000000,44.353981 301.000000,87.708336 301.000000,131.531342 
z"/>
<path fill="#47704C" opacity="1.000000" stroke="none" 
	d="
M130.531342,0.999999 
	C123.103600,2.942158 115.156494,4.700672 107.321075,6.863736 
	C89.623024,11.749508 73.747246,20.298578 59.153492,31.343576 
	C34.996815,49.626076 18.483194,73.552475 8.330253,101.797272 
	C5.026003,110.989471 3.829548,120.939346 1.334520,130.771332 
	C1.000000,87.739693 1.000000,44.479385 1.000000,1.000000 
	C44.020645,1.000000 87.041664,1.000000 130.531342,0.999999 
z"/>
<path fill="#47704C" opacity="1.000000" stroke="none" 
	d="
M171.468658,301.000000 
	C177.654892,299.507172 184.368500,298.234680 190.953491,296.479645 
	C209.816666,291.452179 226.955002,282.773682 242.447495,270.980469 
	C270.676208,249.492188 288.609650,221.139435 297.460846,186.951996 
	C298.855011,181.567108 299.395599,175.961197 300.665405,170.228745 
	C301.000000,213.593369 301.000000,257.186737 301.000000,301.000000 
	C257.979370,301.000000 214.958344,301.000000 171.468658,301.000000 
z"/>
<path fill="#47704C" opacity="1.000000" stroke="none" 
	d="
M0.999999,171.468658 
	C2.943457,178.899475 4.752831,186.834885 6.857561,194.691162 
	C11.620204,212.468521 20.425583,228.211334 31.360630,242.877716 
	C45.155224,261.379333 62.723373,275.450958 83.088371,285.896118 
	C97.949646,293.518433 113.798592,298.564758 130.771332,300.665466 
	C87.739693,301.000000 44.479385,301.000000 1.000000,301.000000 
	C1.000000,257.979340 1.000000,214.958328 0.999999,171.468658 
z"/>
<path fill="#FCFCFC" opacity="1.000000" stroke="none" 
	d="
M176.761337,201.111206 
	C160.907486,180.774750 145.047195,160.443314 129.203171,140.099197 
	C123.503159,132.780228 117.842316,125.430748 111.384018,117.088165 
	C111.384018,149.027100 111.384018,179.702530 111.384018,210.700409 
	C104.534996,210.700409 98.121643,210.700409 91.339607,210.700409 
	C91.339607,171.126923 91.339607,131.427383 91.339607,91.041527 
	C99.109077,91.041527 107.032341,90.908936 114.941956,91.177811 
	C116.195587,91.220413 117.621422,92.890503 118.574135,94.114441 
	C143.013458,125.511253 167.400421,156.948822 191.834381,189.046387 
	C187.863953,194.876480 183.396912,199.431366 176.761337,201.111206 
z"/>
<path fill="#EFEFEF" opacity="1.000000" stroke="none" 
	d="
M192.889099,99.007751 
	C192.749878,96.570160 192.610641,94.132561 192.450867,91.335190 
	C199.229446,91.335190 205.683395,91.335190 212.646286,91.335190 
	C212.646286,93.628532 212.646286,95.872177 212.083435,98.547760 
	C205.310104,98.989044 199.099609,98.998398 192.889099,99.007751 
z"/>
<path fill="#A7A7A7" opacity="1.000000" stroke="none" 
	d="
M212.407761,114.757164 
	C212.478165,117.583694 212.548569,120.410233 212.063843,123.607651 
	C205.307297,123.988525 199.105865,123.998520 192.904434,124.008514 
	C192.798935,121.306709 192.693436,118.604912 193.195129,115.466888 
	C199.902832,114.836304 206.003357,114.641937 212.221558,114.484032 
	C212.339233,114.520493 212.407761,114.757164 212.407761,114.757164 
M207.242554,118.998466 
	C205.355545,119.147308 203.468521,119.296158 201.581512,119.445000 
	C201.633011,119.739761 201.684509,120.034523 201.736008,120.329285 
	C204.603806,120.329285 207.471603,120.329285 210.339386,120.329285 
	C210.340973,120.026054 210.342545,119.722832 210.344131,119.419601 
	C209.588562,119.280632 208.833008,119.141670 207.242554,118.998466 
z"/>
<path fill="#494949" opacity="1.000000" stroke="none" 
	d="
M192.934586,156.023254 
	C192.769241,154.189865 192.603897,152.356476 193.123291,150.258270 
	C199.944717,150.019653 206.081406,150.045853 212.218109,150.072052 
	C212.387589,152.415955 212.557068,154.759842 212.233353,157.530426 
	C205.471634,157.312485 199.203110,156.667877 192.934586,156.023254 
z"/>
<path fill="#141414" opacity="1.000000" stroke="none" 
	d="
M212.895676,168.935120 
	C212.944000,174.773529 211.881210,175.881622 206.036575,175.987228 
	C203.705338,176.029358 201.372177,176.025909 199.040802,175.987793 
	C193.455612,175.896454 192.640778,174.943573 193.269318,168.345520 
	C200.195526,168.321548 206.545609,168.628342 212.895676,168.935120 
z"/>
<path fill="#E5E5E5" opacity="1.000000" stroke="none" 
	d="
M176.837418,201.429077 
	C183.396912,199.431366 187.863953,194.876480 191.929138,189.373566 
	C193.248734,190.520233 194.511459,192.006805 195.851074,194.167511 
	C190.831345,198.612183 185.734756,202.382690 180.638153,206.153198 
	C179.396606,204.684464 178.155045,203.215714 176.837418,201.429077 
z"/>
<path fill="#242424" opacity="1.000000" stroke="none" 
	d="
M221.910233,257.111633 
	C220.350266,255.962646 218.790283,254.813660 217.436844,253.306976 
	C222.465973,248.929520 227.288574,244.909775 232.111160,240.890030 
	C233.321976,242.392044 234.532776,243.894043 235.684189,245.960617 
	C231.053268,250.054001 226.481750,253.582809 221.910233,257.111633 
z"/>
<path fill="#D6D6D6" opacity="1.000000" stroke="none" 
	d="
M180.730377,206.461517 
	C185.734756,202.382690 190.831345,198.612183 195.940338,194.486298 
	C196.909027,195.232452 197.865295,196.333954 198.855621,198.084595 
	C193.837830,202.526627 188.785980,206.319504 183.734116,210.112381 
	C182.763611,208.998199 181.793121,207.884033 180.730377,206.461517 
z"/>
<path fill="#242424" opacity="1.000000" stroke="none" 
	d="
M212.917877,168.512085 
	C206.545609,168.628342 200.195526,168.321548 193.407974,168.021881 
	C192.962753,166.958313 192.955017,165.887619 193.430359,164.410553 
	C199.959717,163.963409 206.005981,163.922668 212.215485,163.877945 
	C212.378723,163.873978 212.704758,163.855362 212.704758,163.855362 
	C212.783188,165.266602 212.861633,166.677826 212.917877,168.512085 
z"/>
<path fill="#6B6B6B" opacity="1.000000" stroke="none" 
	d="
M218.654022,223.867676 
	C219.444778,224.642151 220.235519,225.416641 220.905945,226.765411 
	C215.878159,231.213547 210.970703,235.087372 206.063232,238.961212 
	C205.103439,237.845963 204.143631,236.730728 203.441132,235.267029 
	C205.757339,233.382675 207.810013,231.838394 209.876602,230.312927 
	C212.797028,228.157227 215.727722,226.015427 218.654022,223.867676 
z"/>
<path fill="#989898" opacity="1.000000" stroke="none" 
	d="
M197.838226,228.296143 
	C196.576370,226.814163 195.314514,225.332184 193.984039,223.435852 
	C193.915405,223.021515 194.027313,222.858887 194.374084,222.869431 
	C199.487732,218.899704 204.254608,214.919434 209.021484,210.939163 
	C209.977539,212.077072 210.933594,213.214966 211.672119,214.806580 
	C209.091843,217.292786 206.659027,219.250488 204.386398,221.379211 
	C202.179626,223.446213 200.137238,225.688721 197.959686,227.957626 
	C197.896713,228.061081 197.838226,228.296143 197.838226,228.296143 
z"/>
<path fill="#CACACA" opacity="1.000000" stroke="none" 
	d="
M183.816925,210.422455 
	C188.785980,206.319504 193.837830,202.526627 198.934967,198.392609 
	C199.709290,199.055725 200.438354,200.059982 201.087097,201.751434 
	C196.248962,206.329849 191.491150,210.221085 186.733322,214.112305 
	C185.788788,212.985703 184.844254,211.859100 183.816925,210.422455 
z"/>
<path fill="#868686" opacity="1.000000" stroke="none" 
	d="
M212.975296,216.072922 
	C214.083862,217.429596 215.192429,218.786255 216.085449,220.591980 
	C210.877365,224.770828 205.884811,228.500641 200.892258,232.230453 
	C199.924408,231.122345 198.956573,230.014252 197.913483,228.601135 
	C197.838226,228.296143 197.896713,228.061081 198.321167,228.004166 
	C203.488831,223.989136 208.232071,220.031036 212.975296,216.072922 
z"/>
<path fill="#CACACA" opacity="1.000000" stroke="none" 
	d="
M212.508575,114.337311 
	C212.407761,114.757164 212.339233,114.520493 212.184631,114.149292 
	C209.936249,112.852974 207.900467,111.341377 205.736328,111.127235 
	C201.487381,110.706818 197.167023,111.008331 192.876205,111.011116 
	C192.787827,109.935829 192.699463,108.860542 193.218750,107.395828 
	C200.017578,106.999428 206.208740,106.992455 212.399918,106.985481 
	C212.469757,109.296143 212.539581,111.606804 212.508575,114.337311 
z"/>
<path fill="#3B3B3B" opacity="1.000000" stroke="none" 
	d="
M212.767395,163.437500 
	C212.704758,163.855362 212.378723,163.873978 212.184448,163.475571 
	C210.748642,162.384048 209.531403,161.149918 208.261337,161.092926 
	C203.177322,160.864838 198.076935,161.002151 192.982590,161.004333 
	C192.949738,159.619934 192.916885,158.235550 192.909317,156.437195 
	C199.203110,156.667877 205.471634,157.312485 212.144867,157.928040 
	C212.643082,159.605865 212.736557,161.312744 212.767395,163.437500 
z"/>
<path fill="#B4B4B4" opacity="1.000000" stroke="none" 
	d="
M202.962677,203.126862 
	C204.351105,204.834457 205.739548,206.542053 206.847839,208.600082 
	C205.040604,209.800659 203.552979,210.733368 201.978851,211.484924 
	C197.826691,213.467407 195.479614,218.805756 189.842941,218.016068 
	C189.842941,218.016068 189.722900,217.912094 189.858948,217.462326 
	C191.869736,214.961288 193.725586,212.892319 195.623978,210.863159 
	C198.052246,208.267593 200.514862,205.704147 202.962677,203.126862 
z"/>
<path fill="#525252" opacity="1.000000" stroke="none" 
	d="
M222.966309,229.159576 
	C223.910355,230.228928 224.854416,231.298294 225.719269,232.936676 
	C220.719711,237.365128 215.799316,241.224518 210.878937,245.083923 
	C209.896362,243.971207 208.913788,242.858490 208.211975,241.373154 
	C213.317276,237.053543 218.141785,233.106552 222.966309,229.159576 
z"/>
<path fill="#161616" opacity="1.000000" stroke="none" 
	d="
M221.924652,257.466003 
	C226.481750,253.582809 231.053268,250.054001 235.822327,246.256485 
	C236.988541,247.105637 237.957184,248.223495 238.610580,249.705627 
	C233.194595,253.717499 228.093887,257.365051 222.993164,261.012634 
	C222.641800,259.948547 222.290436,258.884491 221.924652,257.466003 
z"/>
<path fill="#D6D6D6" opacity="1.000000" stroke="none" 
	d="
M212.523087,106.594894 
	C206.208740,106.992455 200.017578,106.999428 193.349564,107.009445 
	C192.787170,105.935745 192.701614,104.859009 193.227753,103.392517 
	C200.018784,102.996094 206.198105,102.989426 212.377426,102.982758 
	C212.467041,104.056602 212.556641,105.130447 212.523087,106.594894 
z"/>
<path fill="#E5E5E5" opacity="1.000000" stroke="none" 
	d="
M212.507812,102.592346 
	C206.198105,102.989426 200.018784,102.996094 193.363800,103.007309 
	C192.797318,101.934296 192.706482,100.856728 192.752380,99.393456 
	C199.099609,98.998398 205.310104,98.989044 211.948364,98.970467 
	C212.463470,100.041473 212.550842,101.121704 212.507812,102.592346 
z"/>
<path fill="#919191" opacity="1.000000" stroke="none" 
	d="
M192.885742,131.015411 
	C192.816223,129.942825 192.746704,128.870239 193.260162,127.401039 
	C200.022766,126.994438 206.202362,126.984451 212.381958,126.974464 
	C212.445831,128.118591 212.509705,129.262726 211.955917,130.715546 
	C205.187424,131.021286 199.036575,131.018356 192.885742,131.015411 
z"/>
<path fill="#868686" opacity="1.000000" stroke="none" 
	d="
M192.792725,131.408630 
	C199.036575,131.018356 205.187424,131.021286 211.835754,131.045044 
	C212.388275,132.131714 212.443314,133.197556 211.917801,134.641113 
	C205.187454,135.017990 199.037689,135.017120 192.887909,135.016266 
	C192.825180,133.944794 192.762451,132.873322 192.792725,131.408630 
z"/>
<path fill="#7A7A7A" opacity="1.000000" stroke="none" 
	d="
M200.958557,232.521454 
	C205.884811,228.500641 210.877365,224.770828 216.231140,220.899872 
	C217.242523,221.581589 217.892700,222.404434 218.598450,223.547485 
	C215.727722,226.015427 212.797028,228.157227 209.876602,230.312927 
	C207.810013,231.838394 205.757339,233.382675 203.347290,234.959991 
	C202.339050,234.271759 201.681946,233.542114 200.958557,232.521454 
z"/>
<path fill="#BFBFBF" opacity="1.000000" stroke="none" 
	d="
M192.750092,111.400276 
	C197.167023,111.008331 201.487381,110.706818 205.736328,111.127235 
	C207.900467,111.341377 209.936249,112.852974 212.066956,114.112823 
	C206.003357,114.641937 199.902832,114.836304 193.322876,115.033020 
	C192.770264,113.953400 192.697113,112.871422 192.750092,111.400276 
z"/>
<path fill="#5F5F5F" opacity="1.000000" stroke="none" 
	d="
M222.743347,228.949905 
	C218.141785,233.106552 213.317276,237.053543 208.118591,241.063934 
	C207.232529,240.587814 206.720642,240.048294 206.135986,239.234985 
	C210.970703,235.087372 215.878159,231.213547 220.986847,227.043427 
	C221.632202,227.411484 222.076309,228.075867 222.743347,228.949905 
z"/>
<path fill="#494949" opacity="1.000000" stroke="none" 
	d="
M211.000488,245.365021 
	C215.799316,241.224518 220.719711,237.365128 225.836304,233.232224 
	C226.635269,233.745605 227.238007,234.532486 227.792480,235.863770 
	C222.837723,240.265625 217.931244,244.123093 213.024750,247.980545 
	C212.390518,247.202408 211.756271,246.424255 211.000488,245.365021 
z"/>
<path fill="#3B3B3B" opacity="1.000000" stroke="none" 
	d="
M213.115967,248.251190 
	C217.931244,244.123093 222.837723,240.265625 227.953125,236.122772 
	C228.703308,236.373474 229.244568,236.909576 229.844940,238.051270 
	C224.875107,242.473114 219.846146,246.289368 214.817200,250.105621 
	C214.280533,249.577698 213.743851,249.049774 213.115967,248.251190 
z"/>
<path fill="#0B0B0B" opacity="1.000000" stroke="none" 
	d="
M223.141937,261.308655 
	C228.093887,257.365051 233.194595,253.717499 238.641205,250.033417 
	C241.418655,253.004669 238.315659,254.080109 236.859848,255.402588 
	C234.188156,257.829620 231.004898,259.706573 228.414963,262.206573 
	C226.151794,264.391174 224.769623,263.747253 223.141937,261.308655 
z"/>
<path fill="#323232" opacity="1.000000" stroke="none" 
	d="
M214.897446,250.407837 
	C219.846146,246.289368 224.875107,242.473114 229.957733,238.318207 
	C230.665695,238.747513 231.319977,239.515472 232.042709,240.586731 
	C227.288574,244.909775 222.465973,248.929520 217.289688,252.995117 
	C216.283234,252.264008 215.630463,251.487030 214.897446,250.407837 
z"/>
<path fill="#5F5F5F" opacity="1.000000" stroke="none" 
	d="
M212.244446,144.052658 
	C212.278122,144.803589 212.311798,145.554504 211.811005,146.661713 
	C205.159515,147.349182 199.042450,147.680389 192.925415,148.011597 
	C192.878372,146.944839 192.831329,145.878098 193.321930,144.408875 
	C199.987885,144.021835 206.116165,144.037247 212.244446,144.052658 
z"/>
<path fill="#ABABAB" opacity="1.000000" stroke="none" 
	d="
M189.939117,218.337708 
	C195.479614,218.805756 197.826691,213.467407 201.978851,211.484924 
	C203.552979,210.733368 205.040604,209.800659 206.959641,208.922455 
	C207.700668,208.946899 207.938828,209.137787 207.824524,209.877960 
	C206.863831,210.960815 206.147141,211.635406 205.425125,212.304291 
	C201.626572,215.823273 197.826721,219.340836 194.027313,222.858887 
	C194.027313,222.858887 193.915405,223.021515 193.914490,223.120270 
	C192.620789,221.699142 191.328033,220.179245 189.939117,218.337708 
z"/>
<path fill="#9E9E9E" opacity="1.000000" stroke="none" 
	d="
M212.505112,126.604492 
	C206.202362,126.984451 200.022766,126.994438 193.366531,127.010010 
	C192.820526,126.257744 192.751144,125.499901 192.793091,124.375290 
	C199.105865,123.998520 205.307297,123.988525 211.931732,123.964417 
	C212.445923,124.711708 212.537094,125.473114 212.505112,126.604492 
z"/>
<path fill="#737373" opacity="1.000000" stroke="none" 
	d="
M212.431244,137.984772 
	C212.456848,138.807831 212.482437,139.630905 211.893784,140.733704 
	C205.153305,141.012634 199.027084,141.011795 192.900864,141.010956 
	C192.847580,140.258575 192.794296,139.506195 193.292664,138.379242 
	C200.039963,137.998032 206.235611,137.991409 212.431244,137.984772 
z"/>
<path fill="#7A7A7A" opacity="1.000000" stroke="none" 
	d="
M212.543076,137.701813 
	C206.235611,137.991409 200.039963,137.998032 193.366486,138.007950 
	C192.832855,137.259125 192.777054,136.506989 192.804596,135.385559 
	C199.037689,135.017120 205.187454,135.017990 211.835297,135.036041 
	C212.440536,135.841782 212.547729,136.630325 212.543076,137.701813 
z"/>
<path fill="#323232" opacity="1.000000" stroke="none" 
	d="
M192.962677,161.380173 
	C198.076935,161.002151 203.177322,160.864838 208.261337,161.092926 
	C209.531403,161.149918 210.748642,162.384048 212.021210,163.479538 
	C206.005981,163.922668 199.959717,163.963409 193.441956,164.009781 
	C192.961243,163.262283 192.952011,162.509140 192.962677,161.380173 
z"/>
<path fill="#6B6B6B" opacity="1.000000" stroke="none" 
	d="
M192.834518,141.383636 
	C199.027084,141.011795 205.153305,141.012634 211.773392,141.027802 
	C212.294876,141.795410 212.322479,142.548660 212.297272,143.677292 
	C206.116165,144.037247 199.987885,144.021835 193.382660,144.012299 
	C192.859879,143.264206 192.814026,142.510254 192.834518,141.383636 
z"/>
<path fill="#565656" opacity="1.000000" stroke="none" 
	d="
M192.875244,148.334045 
	C199.042450,147.680389 205.159515,147.349182 211.757889,147.034882 
	C212.254349,147.806381 212.269501,148.560989 212.251373,149.693817 
	C206.081406,150.045853 199.944717,150.019653 193.325836,149.976990 
	C192.837448,149.525833 192.831268,149.091187 192.875244,148.334045 
z"/>
<path fill="#BFBFBF" opacity="1.000000" stroke="none" 
	d="
M202.865631,202.827881 
	C200.514862,205.704147 198.052246,208.267593 195.623978,210.863159 
	C193.725586,212.892319 191.869736,214.961288 189.848511,217.383606 
	C188.799149,216.750107 187.896225,215.745575 186.863312,214.426666 
	C191.491150,210.221085 196.248962,206.329849 201.064545,202.074524 
	C201.671082,201.983261 202.219849,202.256088 202.865631,202.827881 
z"/>
<path fill="#919191" opacity="1.000000" stroke="none" 
	d="
M212.911377,215.826172 
	C208.232071,220.031036 203.488831,223.989136 198.384140,227.900711 
	C200.137238,225.688721 202.179626,223.446213 204.386398,221.379211 
	C206.659027,219.250488 209.091843,217.292786 211.761063,215.117126 
	C212.327515,215.175812 212.587494,215.377625 212.911377,215.826172 
z"/>
<path fill="#9E9E9E" opacity="1.000000" stroke="none" 
	d="
M194.374084,222.869431 
	C197.826721,219.340836 201.626572,215.823273 205.425125,212.304291 
	C206.147141,211.635406 206.863831,210.960815 207.875671,210.110855 
	C208.524277,209.963745 208.775955,210.141907 208.972427,210.703247 
	C204.254608,214.919434 199.487732,218.899704 194.374084,222.869431 
z"/>
<path fill="#ABABAB" opacity="1.000000" stroke="none" 
	d="
M207.660004,119.000580 
	C208.833008,119.141670 209.588562,119.280632 210.344131,119.419601 
	C210.342545,119.722832 210.340973,120.026054 210.339386,120.329285 
	C207.471603,120.329285 204.603806,120.329285 201.736008,120.329285 
	C201.684509,120.034523 201.633011,119.739761 201.581512,119.445000 
	C203.468521,119.296158 205.355545,119.147308 207.660004,119.000580 
z"/>
</svg>